# Blender3D v249 OBJ File: flakeLayers.blend
# www.blender3d.org
v -0.545098 0.672921 -0.234528
v -0.505196 0.879537 -0.200018
v -0.652903 0.708219 -0.272643
v -0.637570 0.922880 -0.246819
v -0.553995 0.951615 -0.225914
v -0.481653 0.891344 -0.113105
v -0.557576 0.628799 -0.123992
v -0.732008 0.685913 -0.185663
v -0.695839 0.961474 -0.188831
v -0.560613 1.007969 -0.155007
v -0.494903 0.698095 -0.049221
v -0.673093 0.636828 -0.093791
v -0.734703 0.895490 -0.140016
v -0.648277 1.014062 -0.132088
v -0.515904 0.970719 -0.085287
v -0.571686 0.748951 0.027191
v -0.681813 0.711087 -0.000355
v -0.711161 0.907297 -0.053103
v -0.657747 0.980579 -0.048204
v -0.575935 0.953791 -0.019279
v -0.502573 0.716347 -0.238597
v -0.598167 0.683479 -0.262508
v -0.547027 0.640872 -0.182761
v -0.523863 0.917193 -0.219269
v -0.485054 0.884859 -0.158750
v -0.641244 0.876834 -0.248630
v -0.698440 0.690448 -0.236293
v -0.594878 0.940445 -0.244377
v -0.670974 0.945734 -0.224483
v -0.553593 0.986093 -0.195122
v -0.490798 0.933776 -0.097200
v -0.459002 0.738199 -0.077743
v -0.520099 0.654377 -0.083348
v -0.615693 0.621509 -0.107259
v -0.709271 0.652149 -0.140343
v -0.725559 0.853059 -0.155921
v -0.723084 0.931040 -0.167185
v -0.676718 0.994651 -0.162932
v -0.604173 1.019594 -0.144787
v -0.533158 0.996342 -0.119679
v -0.527669 0.718836 -0.002242
v -0.682344 0.665655 -0.040931
v -0.731303 0.901976 -0.094371
v -0.656283 1.004900 -0.087489
v -0.541378 0.967277 -0.046865
v -0.575113 0.910000 -0.004491
v -0.627941 0.725805 0.023973
v -0.692493 0.869642 -0.033852
v -0.690018 0.947623 -0.045116
v -0.617473 0.972566 -0.026970
v -0.570691 0.874362 -0.250239
v -0.471910 0.688428 -0.155298
v -0.638473 0.631159 -0.196960
v -0.703279 0.883578 -0.215576
v -0.622492 0.994414 -0.208165
v -0.498756 0.953898 -0.164418
v -0.591554 0.654690 -0.023744
v -0.754604 0.708078 -0.081391
v -0.713288 0.968810 -0.108330
v -0.586886 1.012271 -0.076713
v -0.513077 0.903256 -0.037546
v -0.645666 0.912472 -0.002882
vn -0.031074 0.319263 0.947157
vn 0.033829 0.358139 0.933055
vn 0.217517 0.741335 0.634908
vn 0.227984 0.687787 0.689182
vn 0.529665 0.280289 0.800558
vn 0.471777 0.327701 0.818559
vn -0.354495 0.425159 0.832810
vn -0.366184 0.489114 0.791629
vn -0.640482 0.663424 0.386848
vn -0.589545 0.675204 0.443324
vn -0.105903 0.847230 0.520563
vn -0.172027 0.818761 0.547757
vn -0.565653 0.135456 0.813442
vn -0.627348 0.130803 0.767675
vn -0.869878 -0.200922 0.450491
vn -0.799634 0.135259 0.585056
vn -0.851637 0.373724 0.367485
vn -0.850708 0.316898 0.419370
vn -0.441758 0.156855 0.883316
vn -0.588325 0.060149 0.806384
vn -0.153660 -0.657210 0.737877
vn -0.217640 -0.618164 0.755319
vn -0.742568 0.090190 0.663670
vn -0.628577 -0.513979 0.583710
vn 0.029147 0.193541 0.980659
vn -0.110360 0.131257 0.985186
vn 0.601080 0.104129 0.792377
vn 0.477732 0.179350 0.860003
vn 0.176728 -0.543616 0.820518
vn 0.190988 -0.477666 0.857530
vn 0.827545 0.561391 0.003060
vn 0.812597 0.577749 0.076757
vn 0.766981 0.347214 0.539614
vn 0.765295 0.410473 0.495818
vn 0.454836 0.808254 0.373964
vn 0.521501 0.770556 0.366442
vn -0.219059 0.904073 -0.366968
vn -0.243343 0.923488 -0.296572
vn -0.068470 0.979596 0.188955
vn -0.125729 0.982473 0.137617
vn -0.603045 0.795792 0.055237
vn -0.543244 0.838919 0.033180
vn -0.902378 -0.033417 -0.429647
vn -0.932759 -0.022365 -0.359806
vn -0.944704 0.327053 0.023905
vn -0.965816 0.259169 -0.005575
vn -0.962945 -0.247601 0.106912
vn -0.978773 0.105872 -0.175485
vn -0.278089 -0.955507 -0.098355
vn -0.302899 -0.952680 -0.025562
vn -0.650801 -0.708643 0.272549
vn -0.593996 -0.759874 0.264123
vn -0.127499 -0.879986 0.457568
vn -0.185286 -0.893697 0.408626
vn 0.791062 -0.587907 0.169075
vn 0.775789 -0.581801 0.244251
vn 0.407079 -0.696187 0.591279
vn 0.475888 -0.666370 0.574004
vn 0.748739 -0.227445 0.622623
vn 0.728482 0.072764 0.681190
vn 0.278089 0.955506 0.098355
vn 0.302900 0.952680 0.025563
vn 0.127499 0.879986 -0.457569
vn 0.185287 0.893696 -0.408626
vn 0.650802 0.708642 -0.272550
vn 0.593996 0.759874 -0.264122
vn -0.791062 0.587907 -0.169076
vn -0.775789 0.581801 -0.244251
vn -0.748739 0.227446 -0.622623
vn -0.742733 0.300272 -0.598485
vn -0.407079 0.696186 -0.591279
vn -0.475888 0.666370 -0.574004
vn -0.799074 -0.599491 -0.045730
vn -0.970798 0.077832 -0.226922
vn -0.454835 -0.808254 -0.373965
vn -0.521502 -0.770556 -0.366443
vn -0.831833 0.128183 -0.540022
vn -0.938934 0.013356 -0.343838
vn 0.219059 -0.904073 0.366968
vn 0.243342 -0.923488 0.296572
vn 0.603045 -0.795792 -0.055236
vn 0.543245 -0.838919 -0.033180
vn 0.068469 -0.979596 -0.188954
vn 0.125729 -0.982474 -0.137616
vn 0.924989 0.058608 0.375446
vn 0.913302 0.214960 0.345936
vn 0.962945 0.247601 -0.106912
vn 0.980063 0.189645 -0.059255
vn 0.987938 0.125026 -0.091358
vn 0.977358 0.061840 -0.202353
vn 0.153660 0.657211 -0.737877
vn 0.217641 0.618164 -0.755319
vn 0.372737 0.149489 -0.915817
vn 0.388745 0.221621 -0.894294
vn 0.676964 0.485864 -0.552861
vn 0.626353 0.484338 -0.610818
vn -0.518389 0.074869 -0.851861
vn -0.457833 0.111565 -0.882010
vn 0.042348 0.035891 -0.998458
vn -0.019885 0.081122 -0.996506
vn -0.176727 0.543616 -0.820518
vn -0.190988 0.477666 -0.857531
vn -0.217517 -0.741336 -0.634908
vn -0.227984 -0.687787 -0.689183
vn -0.017591 0.142159 -0.989688
vn 0.197063 0.034607 -0.979780
vn -0.638160 0.066290 -0.767045
vn -0.451171 0.156324 -0.878640
vn 0.869878 0.200922 -0.450491
vn 0.864955 0.131917 -0.484201
vn 0.587036 0.195171 -0.785682
vn 0.610420 -0.099156 -0.785847
vn 0.885965 0.120128 -0.447923
vn 0.942970 0.057332 -0.327904
vn 0.640480 -0.663425 -0.386850
vn 0.589545 -0.675204 -0.443323
vn 0.354495 -0.425160 -0.832810
vn 0.233188 0.028907 -0.972002
vn 0.105903 -0.847229 -0.520564
vn 0.172027 -0.818760 -0.547758
usemtl (null)
s off
f 20//1 50//1 46//1
f 50//2 62//2 46//2
f 20//3 45//3 50//3
f 45//4 60//4 50//4
f 20//5 46//5 45//5
f 46//6 61//6 45//6
f 19//7 49//7 50//7
f 49//8 62//8 50//8
f 19//9 44//9 49//9
f 44//10 59//10 49//10
f 19//11 50//11 44//11
f 50//12 60//12 44//12
f 18//13 48//13 49//13
f 48//14 62//14 49//14
f 18//15 43//15 48//15
f 43//16 58//16 48//16
f 18//17 49//17 43//17
f 49//18 59//18 43//18
f 17//19 47//19 48//19
f 47//20 62//20 48//20
f 17//21 42//21 47//21
f 42//22 57//22 47//22
f 17//23 48//23 58//23
f 17//24 58//24 42//24
f 16//25 46//25 62//25
f 16//26 62//26 47//26
f 16//27 41//27 61//27
f 16//28 61//28 46//28
f 16//29 47//29 41//29
f 47//30 57//30 41//30
f 15//31 31//31 40//31
f 31//32 56//32 40//32
f 15//33 45//33 31//33
f 45//34 61//34 31//34
f 15//35 40//35 45//35
f 40//36 60//36 45//36
f 14//37 39//37 38//37
f 39//38 55//38 38//38
f 14//39 44//39 39//39
f 44//40 60//40 39//40
f 14//41 38//41 44//41
f 38//42 59//42 44//42
f 13//43 37//43 36//43
f 37//44 54//44 36//44
f 13//45 43//45 37//45
f 43//46 59//46 37//46
f 13//47 36//47 43//47
f 36//48 58//48 43//48
f 12//49 35//49 34//49
f 35//50 53//50 34//50
f 12//51 42//51 35//51
f 42//52 58//52 35//52
f 12//53 34//53 42//53
f 34//54 57//54 42//54
f 11//55 33//55 32//55
f 33//56 52//56 32//56
f 11//57 41//57 33//57
f 41//58 57//58 33//58
f 11//59 32//59 41//59
f 32//60 61//60 41//60
f 10//61 39//61 40//61
f 39//62 60//62 40//62
f 10//63 30//63 39//63
f 30//64 55//64 39//64
f 10//65 40//65 30//65
f 40//66 56//66 30//66
f 9//67 37//67 38//67
f 37//68 59//68 38//68
f 9//69 29//69 37//69
f 29//70 54//70 37//70
f 9//71 38//71 29//71
f 38//72 55//72 29//72
f 8//73 35//73 58//73
f 8//74 58//74 36//74
f 8//75 27//75 35//75
f 27//76 53//76 35//76
f 8//77 36//77 27//77
f 36//78 54//78 27//78
f 7//79 33//79 34//79
f 33//80 57//80 34//80
f 7//81 23//81 33//81
f 23//82 52//82 33//82
f 7//83 34//83 23//83
f 34//84 53//84 23//84
f 6//85 31//85 61//85
f 6//86 61//86 32//86
f 6//87 25//87 31//87
f 25//88 56//88 31//88
f 6//89 32//89 25//89
f 32//90 52//90 25//90
f 5//91 28//91 30//91
f 28//92 55//92 30//92
f 5//93 24//93 28//93
f 24//94 51//94 28//94
f 5//95 30//95 24//95
f 30//96 56//96 24//96
f 4//97 26//97 29//97
f 26//98 54//98 29//98
f 4//99 28//99 26//99
f 28//100 51//100 26//100
f 4//101 29//101 28//101
f 29//102 55//102 28//102
f 3//103 22//103 27//103
f 22//104 53//104 27//104
f 3//105 26//105 51//105
f 3//106 51//106 22//106
f 3//107 27//107 54//107
f 3//108 54//108 26//108
f 2//109 24//109 25//109
f 24//110 56//110 25//110
f 2//111 21//111 51//111
f 2//112 51//112 24//112
f 2//113 25//113 21//113
f 25//114 52//114 21//114
f 1//115 21//115 23//115
f 21//116 52//116 23//116
f 1//117 22//117 21//117
f 22//118 51//118 21//118
f 1//119 23//119 22//119
f 23//120 53//120 22//120
v -0.682426 0.535397 -0.048539
v -0.702690 0.505745 -0.080558
v -0.723520 0.503594 -0.123878
v -0.736959 0.529765 -0.161951
v -0.737874 0.574262 -0.180236
v -0.725915 0.620088 -0.171747
v -0.705651 0.649739 -0.139728
v -0.684821 0.651891 -0.096408
v -0.671381 0.625720 -0.058335
v -0.670467 0.581223 -0.040050
v -0.921039 0.581559 0.065258
v -0.935866 0.559863 0.041830
v -0.951107 0.558289 0.010134
v -0.960940 0.577438 -0.017723
v -0.961610 0.609996 -0.031102
v -0.952860 0.643526 -0.024891
v -0.938032 0.665222 -0.001463
v -0.922791 0.666795 0.030234
v -0.912958 0.647646 0.058091
v -0.912289 0.615089 0.071469
v -0.704170 0.577742 -0.110143
v -0.936949 0.612542 0.020184
vn 0.893320 -0.154980 -0.421853
vn -0.893320 0.154981 0.421854
vn -0.893320 0.154981 0.421853
vn -0.893321 0.154981 0.421852
vn -0.893320 0.154979 0.421853
vn 0.893320 -0.154981 -0.421853
vn -0.893320 0.154980 0.421853
vn 0.893321 -0.154980 -0.421852
vn 0.893321 -0.154980 -0.421853
vn -0.893320 0.154981 0.421852
vn 0.373581 -0.262304 0.889738
vn 0.373582 -0.262303 0.889738
vn 0.432253 0.350325 0.830921
vn 0.432253 0.350322 0.830922
vn 0.300180 0.832244 0.466113
vn 0.300180 0.832242 0.466117
vn 0.028760 0.997576 -0.063366
vn 0.028761 0.997576 -0.063364
vn -0.276581 0.786031 -0.552864
vn -0.276580 0.786033 -0.552861
vn -0.500480 0.282216 -0.818458
vn -0.500481 0.282216 -0.818458
vn -0.559947 -0.324728 -0.762241
vn -0.559947 -0.324729 -0.762240
vn -0.431200 -0.807368 -0.402769
vn -0.431199 -0.807369 -0.402768
vn -0.161033 -0.978868 0.126037
vn -0.161032 -0.978868 0.126039
vn 0.146866 -0.770369 0.620453
vn 0.146866 -0.770369 0.620454
usemtl (null)
s off
f 83//121 63//121 64//121
f 84//122 74//122 73//122
f 83//121 64//121 65//121
f 84//123 75//123 74//123
f 83//121 65//121 66//121
f 84//124 76//124 75//124
f 83//121 66//121 67//121
f 84//125 77//125 76//125
f 83//126 67//126 68//126
f 84//127 78//127 77//127
f 83//128 68//128 69//128
f 84//123 79//123 78//123
f 83//129 69//129 70//129
f 84//123 80//123 79//123
f 83//121 70//121 71//121
f 84//130 81//130 80//130
f 83//121 71//121 72//121
f 84//127 82//127 81//127
f 72//121 63//121 83//121
f 84//127 73//127 82//127
f 73//131 63//131 82//131
f 63//132 72//132 82//132
f 71//133 81//133 72//133
f 81//134 82//134 72//134
f 70//135 80//135 71//135
f 80//136 81//136 71//136
f 69//137 79//137 70//137
f 79//138 80//138 70//138
f 68//139 78//139 69//139
f 78//140 79//140 69//140
f 67//141 77//141 78//141
f 67//142 78//142 68//142
f 66//143 76//143 77//143
f 66//144 77//144 67//144
f 65//145 75//145 76//145
f 65//146 76//146 66//146
f 64//147 74//147 75//147
f 64//148 75//148 65//148
f 63//149 73//149 74//149
f 63//150 74//150 64//150
v -0.586821 0.578550 -0.251469
v -0.567920 0.567011 -0.210164
v -0.556976 0.583295 -0.167602
v -0.558169 0.621181 -0.140040
v -0.571045 0.666198 -0.138005
v -0.590684 0.701151 -0.162275
v -0.609586 0.712689 -0.203579
v -0.620530 0.696406 -0.246141
v -0.619336 0.658520 -0.273704
v -0.606461 0.613503 -0.275739
v -0.261831 0.671371 -0.370677
v -0.247632 0.662703 -0.339650
v -0.239411 0.674935 -0.307678
v -0.240308 0.703395 -0.286974
v -0.249980 0.737211 -0.285445
v -0.264733 0.763467 -0.303676
v -0.278931 0.772134 -0.334704
v -0.287152 0.759902 -0.366675
v -0.286256 0.731443 -0.387380
v -0.276584 0.697627 -0.388908
v -0.588753 0.639850 -0.206872
v -0.263282 0.717419 -0.337177
vn -0.901351 -0.272998 0.336212
vn 0.901350 0.272999 -0.336213
vn -0.901350 -0.272998 0.336213
vn 0.901351 0.272999 -0.336212
vn -0.901350 -0.272999 0.336213
vn -0.901350 -0.273000 0.336213
vn 0.901350 0.272999 -0.336212
vn -0.901350 -0.273000 0.336212
vn -0.901351 -0.272999 0.336213
vn 0.901350 0.273000 -0.336214
vn -0.113961 -0.609039 -0.784910
vn -0.113962 -0.609038 -0.784911
vn -0.313453 -0.046778 -0.948451
vn -0.313451 -0.046782 -0.948451
vn -0.375384 0.537511 -0.755095
vn -0.375384 0.537510 -0.755096
vn -0.276501 0.919149 -0.280556
vn -0.276502 0.919148 -0.280559
vn -0.055758 0.954725 0.292219
vn -0.055759 0.954725 0.292217
vn 0.203112 0.632894 0.747122
vn 0.203112 0.632893 0.747123
vn 0.402632 0.073918 0.912373
vn 0.402633 0.073916 0.912372
vn 0.466053 -0.510850 0.722376
vn 0.466053 -0.510852 0.722375
vn 0.368054 -0.896069 0.248188
vn 0.368054 -0.896069 0.248186
vn 0.146371 -0.933368 -0.327719
usemtl (null)
s off
f 105//151 85//151 86//151
f 106//152 96//152 95//152
f 105//153 86//153 87//153
f 106//154 97//154 96//154
f 105//153 87//153 88//153
f 106//154 98//154 97//154
f 105//155 88//155 89//155
f 106//154 99//154 98//154
f 105//156 89//156 90//156
f 106//154 100//154 99//154
f 105//155 90//155 91//155
f 106//157 101//157 100//157
f 105//155 91//155 92//155
f 106//152 102//152 101//152
f 105//158 92//158 93//158
f 106//152 103//152 102//152
f 105//159 93//159 94//159
f 106//152 104//152 103//152
f 94//151 85//151 105//151
f 106//160 95//160 104//160
f 95//161 85//161 104//161
f 85//162 94//162 104//162
f 93//163 103//163 94//163
f 103//164 104//164 94//164
f 92//165 102//165 93//165
f 102//166 103//166 93//166
f 91//167 101//167 92//167
f 101//168 102//168 92//168
f 90//169 100//169 91//169
f 100//170 101//170 91//170
f 89//171 99//171 100//171
f 89//172 100//172 90//172
f 88//173 98//173 99//173
f 88//174 99//174 89//174
f 87//175 97//175 98//175
f 87//176 98//176 88//176
f 86//177 96//177 97//177
f 86//178 97//178 87//178
f 85//179 95//179 96//179
f 85//179 96//179 86//179
v -0.728301 -0.028883 -0.290609
v -0.692679 -0.028883 -0.319843
v -0.652039 -0.028883 -0.341566
v -0.607942 -0.028883 -0.354943
v -0.562082 -0.028883 -0.359459
v -0.516222 -0.028883 -0.354943
v -0.472124 -0.028883 -0.341566
v -0.431484 -0.028883 -0.319843
v -0.395862 -0.028883 -0.290609
v -0.366628 -0.028883 -0.254988
v -0.344905 -0.028883 -0.214347
v -0.331529 -0.028883 -0.170250
v -0.327012 -0.028883 -0.124390
v -0.331529 -0.028883 -0.078530
v -0.344905 -0.028883 -0.034432
v -0.366628 -0.028883 0.006208
v -0.395862 -0.028883 0.041830
v -0.431484 -0.028883 0.071064
v -0.472124 -0.028883 0.092787
v -0.516222 -0.028883 0.106163
v -0.562082 -0.028883 0.110680
v -0.607942 -0.028883 0.106163
v -0.652039 -0.028883 0.092787
v -0.692680 -0.028883 0.071064
v -0.728301 -0.028883 0.041830
v -0.757535 -0.028883 0.006208
v -0.779258 -0.028883 -0.034432
v -0.792635 -0.028883 -0.078530
v -0.797151 -0.028883 -0.124390
v -0.792635 -0.028883 -0.170250
v -0.779258 -0.028883 -0.214347
v -0.757535 -0.028883 -0.254988
v -0.704119 0.815845 -0.217852
v -0.684089 0.815845 -0.234290
v -0.661238 0.815845 -0.246504
v -0.636442 0.815845 -0.254026
v -0.610656 0.815845 -0.256566
v -0.584870 0.815845 -0.254026
v -0.560075 0.815845 -0.246504
v -0.537223 0.815845 -0.234290
v -0.517194 0.815845 -0.217852
v -0.500756 0.815845 -0.197823
v -0.488542 0.815845 -0.174971
v -0.481020 0.815845 -0.150176
v -0.478480 0.815845 -0.124390
v -0.481020 0.815845 -0.098603
v -0.488541 0.815845 -0.073808
v -0.500756 0.815845 -0.050957
v -0.517194 0.815845 -0.030927
v -0.537223 0.815845 -0.014489
v -0.560074 0.815845 -0.002275
v -0.584870 0.815845 0.005247
v -0.610656 0.815845 0.007787
v -0.636442 0.815845 0.005247
v -0.661237 0.815845 -0.002274
v -0.684089 0.815845 -0.014489
v -0.704118 0.815845 -0.030926
v -0.720556 0.815845 -0.050956
v -0.732771 0.815845 -0.073807
v -0.740293 0.815845 -0.098602
v -0.742833 0.815845 -0.124389
v -0.740293 0.815845 -0.150175
v -0.732772 0.815845 -0.174970
v -0.720558 0.815845 -0.197822
v -0.562082 -0.028883 -0.124390
v -0.610656 0.815845 -0.124390
vn 0.000000 -1.000000 -0.000000
vn 0.000000 1.000000 0.000000
vn 0.000001 -1.000000 0.000000
vn -0.000000 -1.000000 -0.000001
vn -0.770742 0.076544 -0.632533
vn -0.770744 0.076544 -0.632530
vn -0.879742 0.070332 -0.470220
vn -0.879737 0.070332 -0.470231
vn -0.954853 0.066049 -0.289644
vn -0.954850 0.066048 -0.289652
vn -0.993154 0.063863 -0.097809
vn -0.993153 0.063863 -0.097818
vn -0.993153 0.063863 0.097817
vn -0.993152 0.063863 0.097825
vn -0.954852 0.066048 0.289648
vn -0.954849 0.066048 0.289658
vn -0.879737 0.070332 0.470229
vn -0.879735 0.070332 0.470234
vn -0.770743 0.076544 0.632532
vn -0.770738 0.076544 0.632537
vn -0.632129 0.084438 0.770249
vn -0.632123 0.084438 0.770254
vn -0.469323 0.093699 0.878041
vn -0.469318 0.093699 0.878044
vn -0.288712 0.103962 0.951755
vn -0.288706 0.103962 0.951757
vn -0.097369 0.114820 0.988603
vn -0.097364 0.114820 0.988603
vn 0.097237 0.125848 0.987273
vn 0.097242 0.125848 0.987272
vn 0.287562 0.136620 0.947968
vn 0.287567 0.136620 0.947966
vn 0.466295 0.146722 0.872377
vn 0.466299 0.146722 0.872375
vn 0.626649 0.155775 0.763574
vn 0.626651 0.155775 0.763572
vn 0.762615 0.163443 0.625863
vn 0.762617 0.163443 0.625861
vn 0.869168 0.169448 0.464580
vn 0.942415 0.173573 0.285878
vn 0.942416 0.173573 0.285876
vn 0.979708 0.175672 0.096493
vn 0.979709 0.175672 0.096490
vn 0.979708 0.175672 -0.096494
vn 0.942415 0.173573 -0.285879
vn 0.869168 0.169448 -0.464580
vn 0.762615 0.163443 -0.625863
vn 0.626649 0.155775 -0.763574
vn 0.466297 0.146722 -0.872376
vn 0.466294 0.146722 -0.872377
vn 0.287563 0.136620 -0.947968
vn 0.287562 0.136620 -0.947968
vn 0.097240 0.125848 -0.987272
vn 0.097237 0.125848 -0.987273
vn -0.097368 0.114820 -0.988603
vn -0.097370 0.114820 -0.988603
vn -0.288709 0.103962 -0.951756
vn -0.288712 0.103962 -0.951755
vn -0.469321 0.093699 -0.878042
vn -0.469323 0.093699 -0.878041
vn -0.632127 0.084438 -0.770251
vn -0.632128 0.084438 -0.770249
usemtl (null)
s off
f 171//180 107//180 108//180
f 172//181 140//181 139//181
f 171//180 108//180 109//180
f 172//181 141//181 140//181
f 171//180 109//180 110//180
f 172//181 142//181 141//181
f 171//180 110//180 111//180
f 172//181 143//181 142//181
f 171//180 111//180 112//180
f 172//181 144//181 143//181
f 171//182 112//182 113//182
f 172//181 145//181 144//181
f 171//180 113//180 114//180
f 172//181 146//181 145//181
f 171//180 114//180 115//180
f 172//181 147//181 146//181
f 171//180 115//180 116//180
f 172//181 148//181 147//181
f 171//180 116//180 117//180
f 172//181 149//181 148//181
f 171//183 117//183 118//183
f 172//181 150//181 149//181
f 171//180 118//180 119//180
f 172//181 151//181 150//181
f 171//180 119//180 120//180
f 172//181 152//181 151//181
f 171//180 120//180 121//180
f 172//181 153//181 152//181
f 171//183 121//183 122//183
f 172//181 154//181 153//181
f 171//180 122//180 123//180
f 172//181 155//181 154//181
f 171//180 123//180 124//180
f 172//181 156//181 155//181
f 171//180 124//180 125//180
f 172//181 157//181 156//181
f 171//182 125//182 126//182
f 172//181 158//181 157//181
f 171//180 126//180 127//180
f 172//181 159//181 158//181
f 171//180 127//180 128//180
f 172//181 160//181 159//181
f 171//180 128//180 129//180
f 172//181 161//181 160//181
f 171//180 129//180 130//180
f 172//181 162//181 161//181
f 171//180 130//180 131//180
f 172//181 163//181 162//181
f 171//180 131//180 132//180
f 172//181 164//181 163//181
f 171//180 132//180 133//180
f 172//181 165//181 164//181
f 171//180 133//180 134//180
f 172//181 166//181 165//181
f 171//180 134//180 135//180
f 172//181 167//181 166//181
f 171//180 135//180 136//180
f 172//181 168//181 167//181
f 171//183 136//183 137//183
f 172//181 169//181 168//181
f 171//180 137//180 138//180
f 172//181 170//181 169//181
f 138//180 107//180 171//180
f 172//181 139//181 170//181
f 139//184 107//184 138//184
f 139//185 138//185 170//185
f 137//186 169//186 170//186
f 137//187 170//187 138//187
f 136//188 168//188 169//188
f 136//189 169//189 137//189
f 135//190 167//190 168//190
f 135//191 168//191 136//191
f 134//192 166//192 135//192
f 166//193 167//193 135//193
f 133//194 165//194 134//194
f 165//195 166//195 134//195
f 132//196 164//196 133//196
f 164//197 165//197 133//197
f 131//198 163//198 132//198
f 163//199 164//199 132//199
f 130//200 162//200 131//200
f 162//201 163//201 131//201
f 129//202 161//202 130//202
f 161//203 162//203 130//203
f 128//204 160//204 129//204
f 160//205 161//205 129//205
f 127//206 159//206 128//206
f 159//207 160//207 128//207
f 126//208 158//208 127//208
f 158//209 159//209 127//209
f 125//210 157//210 126//210
f 157//211 158//211 126//211
f 124//212 156//212 125//212
f 156//213 157//213 125//213
f 123//214 155//214 124//214
f 155//215 156//215 124//215
f 122//216 154//216 123//216
f 154//217 155//217 123//217
f 121//218 153//218 122//218
f 153//218 154//218 122//218
f 120//219 152//219 121//219
f 152//220 153//220 121//220
f 119//221 151//221 120//221
f 151//222 152//222 120//222
f 118//223 150//223 151//223
f 118//223 151//223 119//223
f 117//224 149//224 150//224
f 117//224 150//224 118//224
f 116//225 148//225 149//225
f 116//225 149//225 117//225
f 115//226 147//226 148//226
f 115//226 148//226 116//226
f 114//227 146//227 147//227
f 114//227 147//227 115//227
f 113//228 145//228 146//228
f 113//229 146//229 114//229
f 112//230 144//230 145//230
f 112//231 145//231 113//231
f 111//232 143//232 144//232
f 111//233 144//233 112//233
f 110//234 142//234 143//234
f 110//235 143//235 111//235
f 109//236 141//236 142//236
f 109//237 142//237 110//237
f 108//238 140//238 141//238
f 108//239 141//239 109//239
f 107//240 139//240 140//240
f 107//241 140//241 108//241
