# Blender3D v249 OBJ File: flakeLayers.blend
# www.blender3d.org
v 0.119668 0.420814 -0.185873
v 0.231429 0.896137 -0.148964
v -0.091855 0.490072 -0.260657
v -0.074480 0.996300 -0.257119
v 0.118656 1.062705 -0.208809
v 0.285834 0.923423 0.051886
v 0.095184 0.334243 0.031009
v -0.247066 0.446305 -0.089994
v -0.209137 1.085489 -0.123112
v 0.103362 1.192935 -0.044946
v 0.218154 0.470208 0.177717
v -0.131469 0.349998 0.090265
v -0.298951 0.933003 -0.010302
v -0.099225 1.207016 0.008018
v 0.206684 1.106854 0.116173
v 0.067500 0.569992 0.327643
v -0.148580 0.495699 0.273595
v -0.244545 0.960289 0.190548
v -0.121109 1.129638 0.201870
v 0.067954 1.067734 0.268714
v 0.203104 0.506020 -0.193855
v 0.015541 0.441530 -0.240771
v 0.115882 0.357932 -0.084300
v 0.188289 0.983156 -0.193453
v 0.277977 0.908435 -0.053597
v -0.082971 0.889890 -0.261304
v -0.181203 0.455205 -0.189335
v 0.024178 1.036892 -0.251475
v -0.151675 1.049115 -0.205501
v 0.119585 1.142381 -0.137650
v 0.264702 1.021479 0.088643
v 0.288594 0.548895 0.121753
v 0.168717 0.384430 0.110756
v -0.018847 0.319940 0.063841
v -0.202455 0.380059 -0.001074
v -0.277819 0.834947 -0.047059
v -0.272098 1.015157 -0.073090
v -0.164949 1.162158 -0.063261
v 0.002698 1.219801 -0.021328
v 0.166809 1.166066 0.036695
v 0.153865 0.510903 0.269893
v -0.149620 0.406557 0.193982
v -0.291093 0.947991 0.095181
v -0.117725 1.185843 0.111083
v 0.147815 1.098899 0.204965
v 0.069855 0.966536 0.302888
v -0.042878 0.524579 0.321329
v -0.201406 0.873270 0.235037
v -0.195685 1.053480 0.209006
v -0.028038 1.111122 0.250939
v 0.080074 0.884178 -0.265022
v 0.263268 0.451241 -0.030416
v -0.063542 0.338873 -0.112162
v -0.226332 0.905475 -0.184917
v -0.039636 1.161610 -0.167791
v 0.246312 1.067982 -0.066694
v 0.028516 0.385044 0.227704
v -0.291402 0.489795 0.114596
v -0.249461 1.102442 0.062921
v 0.042647 1.202878 0.135986
v 0.213215 0.950951 0.226501
v -0.093190 0.972249 0.306606
v 0.281945 -0.060029 -0.322090
v 0.349251 -0.052630 -0.259282
v 0.402963 -0.044215 -0.185206
v 0.441018 -0.035108 -0.102708
v 0.461952 -0.025659 -0.014959
v 0.464961 -0.016231 0.074669
v 0.449930 -0.007186 0.162731
v 0.417436 0.001127 0.245844
v 0.368727 0.008390 0.320814
v 0.305677 0.014324 0.384759
v 0.230707 0.018700 0.435221
v 0.146699 0.021350 0.470263
v 0.056882 0.022173 0.488537
v -0.035294 0.021136 0.489340
v -0.126286 0.018280 0.472643
v -0.212598 0.013715 0.439086
v -0.290911 0.007615 0.389960
v -0.358217 0.000215 0.327152
v -0.411929 -0.008200 0.253075
v -0.449984 -0.017307 0.170577
v -0.470918 -0.026756 0.082828
v -0.473927 -0.036184 -0.006800
v -0.458896 -0.045228 -0.094862
v -0.426401 -0.053542 -0.177975
v -0.377693 -0.060805 -0.252945
v -0.314643 -0.066739 -0.316889
v -0.239673 -0.071115 -0.367352
v -0.155665 -0.073765 -0.402393
v -0.065847 -0.074587 -0.420667
v 0.026329 -0.073551 -0.421471
v 0.117321 -0.070695 -0.404773
v 0.203632 -0.066129 -0.371216
v 0.149461 0.850085 -0.180107
v 0.187148 0.854228 -0.144938
v 0.217223 0.858940 -0.103460
v 0.238531 0.864039 -0.057267
v 0.250253 0.869330 -0.008133
v 0.251938 0.874609 0.042052
v 0.243521 0.879674 0.091361
v 0.225327 0.884329 0.137899
v 0.198053 0.888396 0.179877
v 0.162749 0.891718 0.215681
v 0.120771 0.894168 0.243937
v 0.073732 0.895652 0.263558
v 0.023441 0.896113 0.273790
v -0.028172 0.895532 0.274240
v -0.079121 0.893933 0.264891
v -0.127450 0.891377 0.246102
v -0.171300 0.887961 0.218594
v -0.208987 0.883818 0.183426
v -0.239062 0.879106 0.141948
v -0.260371 0.874007 0.095755
v -0.272092 0.868716 0.046622
v -0.273778 0.863437 -0.003564
v -0.265361 0.858373 -0.052873
v -0.247167 0.853718 -0.099411
v -0.219894 0.849651 -0.141389
v -0.184590 0.846328 -0.177194
v -0.142612 0.843878 -0.205450
v -0.095574 0.842394 -0.225071
v -0.045282 0.841933 -0.235303
v 0.006330 0.842514 -0.235754
v 0.057280 0.844113 -0.226405
v 0.105608 0.846669 -0.207616
vn -0.031074 0.319263 0.947156
vn 0.033829 0.358139 0.933055
vn 0.217517 0.741335 0.634909
vn 0.227984 0.687787 0.689182
vn 0.529663 0.280290 0.800559
vn 0.471777 0.327701 0.818559
vn -0.354495 0.425160 0.832810
vn -0.366184 0.489114 0.791629
vn -0.640480 0.663425 0.386850
vn -0.589545 0.675204 0.443324
vn -0.105904 0.847229 0.520564
vn -0.172027 0.818760 0.547757
vn -0.565654 0.135456 0.813442
vn -0.627348 0.130804 0.767675
vn -0.869879 -0.200922 0.450490
vn -0.835713 0.023812 0.548650
vn -0.851637 0.373724 0.367484
vn -0.850708 0.316898 0.419370
vn -0.419043 0.034030 0.907328
vn -0.530942 -0.031820 0.846810
vn -0.153660 -0.657210 0.737877
vn -0.217641 -0.618163 0.755319
vn -0.742806 -0.035652 0.668556
vn -0.628577 -0.513979 0.583709
vn 0.024933 0.062141 0.997756
vn -0.067434 0.025225 0.997405
vn 0.558861 0.006396 0.829237
vn 0.474007 0.052059 0.878981
vn 0.176727 -0.543617 0.820517
vn 0.190988 -0.477666 0.857531
vn 0.827545 0.561391 0.003060
vn 0.812597 0.577749 0.076756
vn 0.766981 0.347214 0.539614
vn 0.765295 0.410472 0.495818
vn 0.454835 0.808255 0.373965
vn 0.521501 0.770556 0.366442
vn -0.219059 0.904073 -0.366968
vn -0.243343 0.923488 -0.296571
vn -0.068470 0.979596 0.188953
vn -0.125728 0.982473 0.137616
vn -0.603044 0.795793 0.055235
vn -0.543244 0.838919 0.033179
vn -0.902378 -0.033417 -0.429647
vn -0.932759 -0.022364 -0.359806
vn -0.944704 0.327052 0.023904
vn -0.965816 0.259168 -0.005575
vn -0.962945 -0.247601 0.106912
vn -0.995898 -0.003161 -0.090430
vn -0.278089 -0.955507 -0.098355
vn -0.302900 -0.952680 -0.025561
vn -0.650802 -0.708642 0.272549
vn -0.593996 -0.759874 0.264122
vn -0.127499 -0.879986 0.457568
vn -0.185286 -0.893697 0.408625
vn 0.791062 -0.587907 0.169074
vn 0.775789 -0.581801 0.244252
vn 0.407078 -0.696187 0.591279
vn 0.475888 -0.666370 0.574005
vn 0.748739 -0.227444 0.622623
vn 0.743748 -0.034482 0.667570
vn 0.278089 0.955507 0.098354
vn 0.302899 0.952680 0.025562
vn 0.127500 0.879986 -0.457568
vn 0.185287 0.893697 -0.408626
vn 0.650801 0.708643 -0.272550
vn 0.593996 0.759874 -0.264123
vn -0.791062 0.587907 -0.169074
vn -0.775789 0.581801 -0.244252
vn -0.748739 0.227445 -0.622623
vn -0.742734 0.300272 -0.598484
vn -0.407078 0.696187 -0.591279
vn -0.475888 0.666371 -0.574004
vn -0.799073 -0.599492 -0.045730
vn -0.978189 -0.055282 -0.200227
vn -0.454834 -0.808255 -0.373965
vn -0.521502 -0.770556 -0.366442
vn -0.833248 -0.004854 -0.552878
vn -0.917528 -0.088155 -0.387776
vn 0.219058 -0.904073 0.366968
vn 0.243342 -0.923488 0.296571
vn 0.603045 -0.795793 -0.055236
vn 0.543244 -0.838919 -0.033180
vn 0.068469 -0.979596 -0.188954
vn 0.125729 -0.982473 -0.137615
vn 0.924989 0.058607 0.375446
vn 0.924850 0.076322 0.372596
vn 0.962945 0.247600 -0.106912
vn 0.980063 0.189645 -0.059255
vn 0.997283 -0.006341 -0.073389
vn 0.989429 -0.038914 -0.139703
vn 0.153661 0.657210 -0.737878
vn 0.217641 0.618164 -0.755319
vn 0.372736 0.149489 -0.915817
vn 0.388745 0.221621 -0.894294
vn 0.676963 0.485864 -0.552862
vn 0.626353 0.484338 -0.610818
vn -0.518390 0.074868 -0.851861
vn -0.457833 0.111565 -0.882011
vn 0.042349 0.035891 -0.998458
vn -0.019885 0.081122 -0.996506
vn -0.176727 0.543616 -0.820518
vn -0.190988 0.477666 -0.857531
vn -0.217517 -0.741336 -0.634908
vn -0.227984 -0.687787 -0.689183
vn -0.022840 -0.001111 -0.999739
vn 0.148382 -0.075655 -0.986032
vn -0.610158 -0.053397 -0.790478
vn -0.469460 0.009003 -0.882908
vn 0.869879 0.200922 -0.450490
vn 0.864955 0.131917 -0.484200
vn 0.605446 0.047462 -0.794470
vn 0.610420 -0.099156 -0.785847
vn 0.899327 -0.015008 -0.437019
vn 0.932001 -0.048198 -0.359236
vn 0.640481 -0.663424 -0.386849
vn 0.589545 -0.675204 -0.443324
vn 0.354495 -0.425160 -0.832810
vn 0.271294 -0.092043 -0.958085
vn 0.105903 -0.847230 -0.520564
vn 0.172027 -0.818760 -0.547758
vn 0.508690 0.204518 -0.836305
vn 0.508687 0.204518 -0.836307
vn 0.345660 0.201384 -0.916495
vn 0.345669 0.201383 -0.916492
vn 0.170803 0.199352 -0.964927
vn 0.170812 0.199351 -0.964926
vn -0.010784 0.198454 -0.980051
vn -0.010775 0.198454 -0.980051
vn -0.193655 0.198654 -0.960747
vn -0.193646 0.198654 -0.960749
vn -0.371837 0.199848 -0.906530
vn -0.371830 0.199848 -0.906533
vn -0.538766 0.201876 -0.817910
vn -0.538760 0.201875 -0.817915
vn -0.687465 0.204530 -0.696821
vn -0.687460 0.204530 -0.696826
vn -0.810984 0.207583 -0.547006
vn -0.810980 0.207582 -0.547011
vn -0.903087 0.210811 -0.374156
vn -0.903085 0.210810 -0.374161
vn -0.959019 0.214032 -0.185671
vn -0.959018 0.214032 -0.185676
vn -0.976093 0.217128 0.009937
vn -0.976093 0.217127 0.009931
vn -0.953943 0.220052 0.203889
vn -0.953944 0.220052 0.203885
vn -0.894342 0.222824 0.387946
vn -0.894344 0.222824 0.387941
vn -0.800715 0.225504 0.554981
vn -0.800717 0.225503 0.554978
vn -0.677548 0.228160 0.699194
vn -0.677551 0.228160 0.699191
vn -0.529888 0.230844 0.816045
vn -0.529890 0.230844 0.816044
vn -0.363047 0.233563 0.902023
vn -0.363050 0.233563 0.902022
vn -0.182548 0.236265 0.954387
vn 0.005781 0.238828 0.971045
vn 0.005779 0.238828 0.971045
vn 0.195609 0.241066 0.950592
vn 0.195610 0.241066 0.950591
vn 0.379974 0.242738 0.892580
vn 0.379972 0.242738 0.892580
vn 0.551321 0.243577 0.797944
vn 0.551321 0.243577 0.797945
vn 0.701859 0.243341 0.669461
vn 0.701859 0.243341 0.669462
vn 0.824198 0.241859 0.512057
vn 0.912213 0.239085 0.332725
vn 0.912212 0.239085 0.332726
vn 0.961826 0.235125 0.140023
vn 0.961826 0.235125 0.140025
vn 0.971476 0.230225 -0.056834
vn 0.971476 0.230225 -0.056833
vn 0.942081 0.224736 -0.248951
vn 0.942082 0.224737 -0.248947
vn 0.876572 0.219059 -0.428525
vn 0.876573 0.219059 -0.428524
vn 0.779203 0.213582 -0.589258
vn 0.779204 0.213583 -0.589256
vn 0.654881 0.208646 -0.726359
usemtl (null)
s off
f 20//1 50//1 46//1
f 50//2 62//2 46//2
f 20//3 45//3 50//3
f 45//4 60//4 50//4
f 20//5 46//5 45//5
f 46//6 61//6 45//6
f 19//7 49//7 50//7
f 49//8 62//8 50//8
f 19//9 44//9 49//9
f 44//10 59//10 49//10
f 19//11 50//11 44//11
f 50//12 60//12 44//12
f 18//13 48//13 49//13
f 48//14 62//14 49//14
f 18//15 43//15 48//15
f 43//16 58//16 48//16
f 18//17 49//17 43//17
f 49//18 59//18 43//18
f 17//19 47//19 48//19
f 47//20 62//20 48//20
f 17//21 42//21 47//21
f 42//22 57//22 47//22
f 17//23 48//23 58//23
f 17//24 58//24 42//24
f 16//25 46//25 62//25
f 16//26 62//26 47//26
f 16//27 41//27 61//27
f 16//28 61//28 46//28
f 16//29 47//29 41//29
f 47//30 57//30 41//30
f 15//31 31//31 40//31
f 31//32 56//32 40//32
f 15//33 45//33 31//33
f 45//34 61//34 31//34
f 15//35 40//35 45//35
f 40//36 60//36 45//36
f 14//37 39//37 38//37
f 39//38 55//38 38//38
f 14//39 44//39 39//39
f 44//40 60//40 39//40
f 14//41 38//41 44//41
f 38//42 59//42 44//42
f 13//43 37//43 36//43
f 37//44 54//44 36//44
f 13//45 43//45 37//45
f 43//46 59//46 37//46
f 13//47 36//47 43//47
f 36//48 58//48 43//48
f 12//49 35//49 34//49
f 35//50 53//50 34//50
f 12//51 42//51 35//51
f 42//52 58//52 35//52
f 12//53 34//53 42//53
f 34//54 57//54 42//54
f 11//55 33//55 32//55
f 33//56 52//56 32//56
f 11//57 41//57 33//57
f 41//58 57//58 33//58
f 11//59 32//59 41//59
f 32//60 61//60 41//60
f 10//61 39//61 40//61
f 39//62 60//62 40//62
f 10//63 30//63 39//63
f 30//64 55//64 39//64
f 10//65 40//65 30//65
f 40//66 56//66 30//66
f 9//67 37//67 38//67
f 37//68 59//68 38//68
f 9//69 29//69 37//69
f 29//70 54//70 37//70
f 9//71 38//71 29//71
f 38//72 55//72 29//72
f 8//73 35//73 58//73
f 8//74 58//74 36//74
f 8//75 27//75 35//75
f 27//76 53//76 35//76
f 8//77 36//77 27//77
f 36//78 54//78 27//78
f 7//79 33//79 34//79
f 33//80 57//80 34//80
f 7//81 23//81 33//81
f 23//82 52//82 33//82
f 7//83 34//83 23//83
f 34//84 53//84 23//84
f 6//85 31//85 61//85
f 6//86 61//86 32//86
f 6//87 25//87 31//87
f 25//88 56//88 31//88
f 6//89 32//89 25//89
f 32//90 52//90 25//90
f 5//91 28//91 30//91
f 28//92 55//92 30//92
f 5//93 24//93 28//93
f 24//94 51//94 28//94
f 5//95 30//95 24//95
f 30//96 56//96 24//96
f 4//97 26//97 29//97
f 26//98 54//98 29//98
f 4//99 28//99 26//99
f 28//100 51//100 26//100
f 4//101 29//101 28//101
f 29//102 55//102 28//102
f 3//103 22//103 27//103
f 22//104 53//104 27//104
f 3//105 26//105 51//105
f 3//106 51//106 22//106
f 3//107 27//107 54//107
f 3//108 54//108 26//108
f 2//109 24//109 25//109
f 24//110 56//110 25//110
f 2//111 21//111 51//111
f 2//112 51//112 24//112
f 2//113 25//113 21//113
f 25//114 52//114 21//114
f 1//115 21//115 23//115
f 21//116 52//116 23//116
f 1//117 22//117 21//117
f 22//118 51//118 21//118
f 1//119 23//119 22//119
f 23//120 53//120 22//120
f 95//121 63//121 94//121
f 95//122 94//122 126//122
f 93//123 125//123 126//123
f 93//124 126//124 94//124
f 92//125 124//125 125//125
f 92//126 125//126 93//126
f 91//127 123//127 124//127
f 91//128 124//128 92//128
f 90//129 122//129 123//129
f 90//130 123//130 91//130
f 89//131 121//131 122//131
f 89//132 122//132 90//132
f 88//133 120//133 121//133
f 88//134 121//134 89//134
f 87//135 119//135 120//135
f 87//136 120//136 88//136
f 86//137 118//137 119//137
f 86//138 119//138 87//138
f 85//139 117//139 118//139
f 85//140 118//140 86//140
f 84//141 116//141 117//141
f 84//142 117//142 85//142
f 83//143 115//143 116//143
f 83//144 116//144 84//144
f 82//145 114//145 115//145
f 82//146 115//146 83//146
f 81//147 113//147 114//147
f 81//148 114//148 82//148
f 80//149 112//149 113//149
f 80//150 113//150 81//150
f 79//151 111//151 112//151
f 79//152 112//152 80//152
f 78//153 110//153 111//153
f 78//154 111//154 79//154
f 77//155 109//155 110//155
f 77//156 110//156 78//156
f 76//157 108//157 109//157
f 76//157 109//157 77//157
f 75//158 107//158 108//158
f 75//159 108//159 76//159
f 74//160 106//160 75//160
f 106//161 107//161 75//161
f 73//162 105//162 106//162
f 73//163 106//163 74//163
f 72//164 104//164 73//164
f 104//165 105//165 73//165
f 71//166 103//166 72//166
f 103//167 104//167 72//167
f 70//168 102//168 71//168
f 102//168 103//168 71//168
f 69//169 101//169 70//169
f 101//170 102//170 70//170
f 68//171 100//171 69//171
f 100//172 101//172 69//172
f 67//173 99//173 68//173
f 99//174 100//174 68//174
f 66//175 98//175 67//175
f 98//176 99//176 67//176
f 65//177 97//177 66//177
f 97//178 98//178 66//178
f 64//179 96//179 65//179
f 96//180 97//180 65//180
f 63//181 95//181 64//181
f 95//181 96//181 64//181
